<svg width="20" height="20" viewBox="0 0 20 20" fill="none" xmlns="http://www.w3.org/2000/svg">
<path d="M7.50008 17.5V11.3333C7.50008 10.8666 7.50008 10.6333 7.59091 10.455C7.67081 10.2982 7.79829 10.1707 7.95509 10.0908C8.13335 10 8.36671 10 8.83342 10H11.1668C11.6335 10 11.8668 10 12.0451 10.0908C12.2019 10.1707 12.3294 10.2982 12.4093 10.455C12.5001 10.6333 12.5001 10.8666 12.5001 11.3333V17.5M1.66675 7.91667L9.20008 2.26667C9.48697 2.0515 9.63041 1.94392 9.78795 1.90245C9.927 1.86585 10.0732 1.86585 10.2122 1.90245C10.3698 1.94392 10.5132 2.05151 10.8001 2.26667L18.3334 7.91667M3.33342 6.66667V14.8333C3.33342 15.7668 3.33342 16.2335 3.51507 16.59C3.67486 16.9036 3.92983 17.1586 4.24343 17.3183C4.59995 17.5 5.06666 17.5 6.00008 17.5H14.0001C14.9335 17.5 15.4002 17.5 15.7567 17.3183C16.0703 17.1586 16.3253 16.9036 16.4851 16.59C16.6668 16.2335 16.6668 15.7668 16.6668 14.8333V6.66667L11.6001 2.86667C11.0263 2.43634 10.7394 2.22118 10.4244 2.13824C10.1462 2.06503 9.85392 2.06503 9.57581 2.13824C9.26073 2.22118 8.97385 2.43634 8.40008 2.86667L3.33342 6.66667Z" stroke="#1D2939" stroke-width="1.6" stroke-linecap="round" stroke-linejoin="round"/>
</svg>
